<?xml version="1.0" encoding="utf-8" standalone="no"?>
<!DOCTYPE svg PUBLIC "-//W3C//DTD SVG 1.1//EN"
  "http://www.w3.org/Graphics/SVG/1.1/DTD/svg11.dtd">
<svg height="288pt" version="1.1" viewBox="0 0 1080 288" width="1080pt" xmlns="http://www.w3.org/2000/svg" xmlns:xlink="http://www.w3.org/1999/xlink">
 <metadata>
  <rdf:RDF xmlns:cc="http://creativecommons.org/ns#" xmlns:dc="http://purl.org/dc/elements/1.1/" xmlns:rdf="http://www.w3.org/1999/02/22-rdf-syntax-ns#">
   <cc:Work>
    <dc:type rdf:resource="http://purl.org/dc/dcmitype/StillImage"/>
    <dc:date>2021-08-22T15:53:30.353462</dc:date>
    <dc:format>image/svg+xml</dc:format>
    <dc:creator>
     <cc:Agent>
      <dc:title>Matplotlib v3.4.2, https://matplotlib.org/</dc:title>
     </cc:Agent>
    </dc:creator>
   </cc:Work>
  </rdf:RDF>
 </metadata>
 <defs>
  <style type="text/css">*{stroke-linecap:butt;stroke-linejoin:round;}</style>
 </defs>
 <g id="figure_1">
  <g id="patch_1">
   <path d="M 0 288 
L 1080 288 
L 1080 0 
L 0 0 
z
" style="fill:#ffffff;"/>
  </g>
  <g id="axes_1">
   <g id="patch_2">
    <path d="M 31.39 259.1075 
L 1067.04 259.1075 
L 1067.04 39.6 
L 31.39 39.6 
z
" style="fill:#eaeaf2;"/>
   </g>
   <g id="matplotlib.axis_1">
    <g id="xtick_1">
     <g id="text_1">
      <!-- R&amp;D Spend -->
      <g style="fill:#262626;" transform="translate(134.443125 273.387188)scale(0.1 -0.1)">
       <defs>
        <path d="M 503 0 
L 503 4581 
L 2534 4581 
Q 3147 4581 3465 4457 
Q 3784 4334 3975 4021 
Q 4166 3709 4166 3331 
Q 4166 2844 3850 2509 
Q 3534 2175 2875 2084 
Q 3116 1969 3241 1856 
Q 3506 1613 3744 1247 
L 4541 0 
L 3778 0 
L 3172 953 
Q 2906 1366 2734 1584 
Q 2563 1803 2427 1890 
Q 2291 1978 2150 2013 
Q 2047 2034 1813 2034 
L 1109 2034 
L 1109 0 
L 503 0 
z
M 1109 2559 
L 2413 2559 
Q 2828 2559 3062 2645 
Q 3297 2731 3419 2920 
Q 3541 3109 3541 3331 
Q 3541 3656 3305 3865 
Q 3069 4075 2559 4075 
L 1109 4075 
L 1109 2559 
z
" id="ArialMT-52" transform="scale(0.015625)"/>
        <path d="M 3041 541 
Q 2763 231 2434 76 
Q 2106 -78 1725 -78 
Q 1022 -78 609 397 
Q 275 784 275 1263 
Q 275 1688 548 2030 
Q 822 2372 1366 2631 
Q 1056 2988 953 3209 
Q 850 3431 850 3638 
Q 850 4050 1173 4354 
Q 1497 4659 1988 4659 
Q 2456 4659 2754 4371 
Q 3053 4084 3053 3681 
Q 3053 3028 2188 2566 
L 3009 1519 
Q 3150 1794 3228 2156 
L 3813 2031 
Q 3663 1431 3406 1044 
Q 3722 625 4122 341 
L 3744 -106 
Q 3403 113 3041 541 
z
M 1897 2928 
Q 2263 3144 2370 3306 
Q 2478 3469 2478 3666 
Q 2478 3900 2329 4048 
Q 2181 4197 1959 4197 
Q 1731 4197 1579 4050 
Q 1428 3903 1428 3691 
Q 1428 3584 1483 3467 
Q 1538 3350 1647 3219 
L 1897 2928 
z
M 2688 984 
L 1656 2263 
Q 1200 1991 1040 1758 
Q 881 1525 881 1297 
Q 881 1019 1103 719 
Q 1325 419 1731 419 
Q 1984 419 2254 576 
Q 2525 734 2688 984 
z
" id="ArialMT-26" transform="scale(0.015625)"/>
        <path d="M 494 0 
L 494 4581 
L 2072 4581 
Q 2606 4581 2888 4516 
Q 3281 4425 3559 4188 
Q 3922 3881 4101 3404 
Q 4281 2928 4281 2316 
Q 4281 1794 4159 1391 
Q 4038 988 3847 723 
Q 3656 459 3429 307 
Q 3203 156 2883 78 
Q 2563 0 2147 0 
L 494 0 
z
M 1100 541 
L 2078 541 
Q 2531 541 2789 625 
Q 3047 709 3200 863 
Q 3416 1078 3536 1442 
Q 3656 1806 3656 2325 
Q 3656 3044 3420 3430 
Q 3184 3816 2847 3947 
Q 2603 4041 2063 4041 
L 1100 4041 
L 1100 541 
z
" id="ArialMT-44" transform="scale(0.015625)"/>
        <path id="ArialMT-20" transform="scale(0.015625)"/>
        <path d="M 288 1472 
L 859 1522 
Q 900 1178 1048 958 
Q 1197 738 1509 602 
Q 1822 466 2213 466 
Q 2559 466 2825 569 
Q 3091 672 3220 851 
Q 3350 1031 3350 1244 
Q 3350 1459 3225 1620 
Q 3100 1781 2813 1891 
Q 2628 1963 1997 2114 
Q 1366 2266 1113 2400 
Q 784 2572 623 2826 
Q 463 3081 463 3397 
Q 463 3744 659 4045 
Q 856 4347 1234 4503 
Q 1613 4659 2075 4659 
Q 2584 4659 2973 4495 
Q 3363 4331 3572 4012 
Q 3781 3694 3797 3291 
L 3216 3247 
Q 3169 3681 2898 3903 
Q 2628 4125 2100 4125 
Q 1550 4125 1298 3923 
Q 1047 3722 1047 3438 
Q 1047 3191 1225 3031 
Q 1400 2872 2139 2705 
Q 2878 2538 3153 2413 
Q 3553 2228 3743 1945 
Q 3934 1663 3934 1294 
Q 3934 928 3725 604 
Q 3516 281 3123 101 
Q 2731 -78 2241 -78 
Q 1619 -78 1198 103 
Q 778 284 539 648 
Q 300 1013 288 1472 
z
" id="ArialMT-53" transform="scale(0.015625)"/>
        <path d="M 422 -1272 
L 422 3319 
L 934 3319 
L 934 2888 
Q 1116 3141 1344 3267 
Q 1572 3394 1897 3394 
Q 2322 3394 2647 3175 
Q 2972 2956 3137 2557 
Q 3303 2159 3303 1684 
Q 3303 1175 3120 767 
Q 2938 359 2589 142 
Q 2241 -75 1856 -75 
Q 1575 -75 1351 44 
Q 1128 163 984 344 
L 984 -1272 
L 422 -1272 
z
M 931 1641 
Q 931 1000 1190 694 
Q 1450 388 1819 388 
Q 2194 388 2461 705 
Q 2728 1022 2728 1688 
Q 2728 2322 2467 2637 
Q 2206 2953 1844 2953 
Q 1484 2953 1207 2617 
Q 931 2281 931 1641 
z
" id="ArialMT-70" transform="scale(0.015625)"/>
        <path d="M 2694 1069 
L 3275 997 
Q 3138 488 2766 206 
Q 2394 -75 1816 -75 
Q 1088 -75 661 373 
Q 234 822 234 1631 
Q 234 2469 665 2931 
Q 1097 3394 1784 3394 
Q 2450 3394 2872 2941 
Q 3294 2488 3294 1666 
Q 3294 1616 3291 1516 
L 816 1516 
Q 847 969 1125 678 
Q 1403 388 1819 388 
Q 2128 388 2347 550 
Q 2566 713 2694 1069 
z
M 847 1978 
L 2700 1978 
Q 2663 2397 2488 2606 
Q 2219 2931 1791 2931 
Q 1403 2931 1139 2672 
Q 875 2413 847 1978 
z
" id="ArialMT-65" transform="scale(0.015625)"/>
        <path d="M 422 0 
L 422 3319 
L 928 3319 
L 928 2847 
Q 1294 3394 1984 3394 
Q 2284 3394 2536 3286 
Q 2788 3178 2913 3003 
Q 3038 2828 3088 2588 
Q 3119 2431 3119 2041 
L 3119 0 
L 2556 0 
L 2556 2019 
Q 2556 2363 2490 2533 
Q 2425 2703 2258 2804 
Q 2091 2906 1866 2906 
Q 1506 2906 1245 2678 
Q 984 2450 984 1813 
L 984 0 
L 422 0 
z
" id="ArialMT-6e" transform="scale(0.015625)"/>
        <path d="M 2575 0 
L 2575 419 
Q 2259 -75 1647 -75 
Q 1250 -75 917 144 
Q 584 363 401 755 
Q 219 1147 219 1656 
Q 219 2153 384 2558 
Q 550 2963 881 3178 
Q 1213 3394 1622 3394 
Q 1922 3394 2156 3267 
Q 2391 3141 2538 2938 
L 2538 4581 
L 3097 4581 
L 3097 0 
L 2575 0 
z
M 797 1656 
Q 797 1019 1065 703 
Q 1334 388 1700 388 
Q 2069 388 2326 689 
Q 2584 991 2584 1609 
Q 2584 2291 2321 2609 
Q 2059 2928 1675 2928 
Q 1300 2928 1048 2622 
Q 797 2316 797 1656 
z
" id="ArialMT-64" transform="scale(0.015625)"/>
       </defs>
       <use xlink:href="#ArialMT-52"/>
       <use x="72.216797" xlink:href="#ArialMT-26"/>
       <use x="138.916016" xlink:href="#ArialMT-44"/>
       <use x="211.132812" xlink:href="#ArialMT-20"/>
       <use x="238.916016" xlink:href="#ArialMT-53"/>
       <use x="305.615234" xlink:href="#ArialMT-70"/>
       <use x="361.230469" xlink:href="#ArialMT-65"/>
       <use x="416.845703" xlink:href="#ArialMT-6e"/>
       <use x="472.460938" xlink:href="#ArialMT-64"/>
      </g>
     </g>
    </g>
    <g id="xtick_2">
     <g id="text_2">
      <!-- Administration -->
      <g style="fill:#262626;" transform="translate(388.080625 273.265312)scale(0.1 -0.1)">
       <defs>
        <path d="M -9 0 
L 1750 4581 
L 2403 4581 
L 4278 0 
L 3588 0 
L 3053 1388 
L 1138 1388 
L 634 0 
L -9 0 
z
M 1313 1881 
L 2866 1881 
L 2388 3150 
Q 2169 3728 2063 4100 
Q 1975 3659 1816 3225 
L 1313 1881 
z
" id="ArialMT-41" transform="scale(0.015625)"/>
        <path d="M 422 0 
L 422 3319 
L 925 3319 
L 925 2853 
Q 1081 3097 1340 3245 
Q 1600 3394 1931 3394 
Q 2300 3394 2536 3241 
Q 2772 3088 2869 2813 
Q 3263 3394 3894 3394 
Q 4388 3394 4653 3120 
Q 4919 2847 4919 2278 
L 4919 0 
L 4359 0 
L 4359 2091 
Q 4359 2428 4304 2576 
Q 4250 2725 4106 2815 
Q 3963 2906 3769 2906 
Q 3419 2906 3187 2673 
Q 2956 2441 2956 1928 
L 2956 0 
L 2394 0 
L 2394 2156 
Q 2394 2531 2256 2718 
Q 2119 2906 1806 2906 
Q 1569 2906 1367 2781 
Q 1166 2656 1075 2415 
Q 984 2175 984 1722 
L 984 0 
L 422 0 
z
" id="ArialMT-6d" transform="scale(0.015625)"/>
        <path d="M 425 3934 
L 425 4581 
L 988 4581 
L 988 3934 
L 425 3934 
z
M 425 0 
L 425 3319 
L 988 3319 
L 988 0 
L 425 0 
z
" id="ArialMT-69" transform="scale(0.015625)"/>
        <path d="M 197 991 
L 753 1078 
Q 800 744 1014 566 
Q 1228 388 1613 388 
Q 2000 388 2187 545 
Q 2375 703 2375 916 
Q 2375 1106 2209 1216 
Q 2094 1291 1634 1406 
Q 1016 1563 777 1677 
Q 538 1791 414 1992 
Q 291 2194 291 2438 
Q 291 2659 392 2848 
Q 494 3038 669 3163 
Q 800 3259 1026 3326 
Q 1253 3394 1513 3394 
Q 1903 3394 2198 3281 
Q 2494 3169 2634 2976 
Q 2775 2784 2828 2463 
L 2278 2388 
Q 2241 2644 2061 2787 
Q 1881 2931 1553 2931 
Q 1166 2931 1000 2803 
Q 834 2675 834 2503 
Q 834 2394 903 2306 
Q 972 2216 1119 2156 
Q 1203 2125 1616 2013 
Q 2213 1853 2448 1751 
Q 2684 1650 2818 1456 
Q 2953 1263 2953 975 
Q 2953 694 2789 445 
Q 2625 197 2315 61 
Q 2006 -75 1616 -75 
Q 969 -75 630 194 
Q 291 463 197 991 
z
" id="ArialMT-73" transform="scale(0.015625)"/>
        <path d="M 1650 503 
L 1731 6 
Q 1494 -44 1306 -44 
Q 1000 -44 831 53 
Q 663 150 594 308 
Q 525 466 525 972 
L 525 2881 
L 113 2881 
L 113 3319 
L 525 3319 
L 525 4141 
L 1084 4478 
L 1084 3319 
L 1650 3319 
L 1650 2881 
L 1084 2881 
L 1084 941 
Q 1084 700 1114 631 
Q 1144 563 1211 522 
Q 1278 481 1403 481 
Q 1497 481 1650 503 
z
" id="ArialMT-74" transform="scale(0.015625)"/>
        <path d="M 416 0 
L 416 3319 
L 922 3319 
L 922 2816 
Q 1116 3169 1280 3281 
Q 1444 3394 1641 3394 
Q 1925 3394 2219 3213 
L 2025 2691 
Q 1819 2813 1613 2813 
Q 1428 2813 1281 2702 
Q 1134 2591 1072 2394 
Q 978 2094 978 1738 
L 978 0 
L 416 0 
z
" id="ArialMT-72" transform="scale(0.015625)"/>
        <path d="M 2588 409 
Q 2275 144 1986 34 
Q 1697 -75 1366 -75 
Q 819 -75 525 192 
Q 231 459 231 875 
Q 231 1119 342 1320 
Q 453 1522 633 1644 
Q 813 1766 1038 1828 
Q 1203 1872 1538 1913 
Q 2219 1994 2541 2106 
Q 2544 2222 2544 2253 
Q 2544 2597 2384 2738 
Q 2169 2928 1744 2928 
Q 1347 2928 1158 2789 
Q 969 2650 878 2297 
L 328 2372 
Q 403 2725 575 2942 
Q 747 3159 1072 3276 
Q 1397 3394 1825 3394 
Q 2250 3394 2515 3294 
Q 2781 3194 2906 3042 
Q 3031 2891 3081 2659 
Q 3109 2516 3109 2141 
L 3109 1391 
Q 3109 606 3145 398 
Q 3181 191 3288 0 
L 2700 0 
Q 2613 175 2588 409 
z
M 2541 1666 
Q 2234 1541 1622 1453 
Q 1275 1403 1131 1340 
Q 988 1278 909 1158 
Q 831 1038 831 891 
Q 831 666 1001 516 
Q 1172 366 1500 366 
Q 1825 366 2078 508 
Q 2331 650 2450 897 
Q 2541 1088 2541 1459 
L 2541 1666 
z
" id="ArialMT-61" transform="scale(0.015625)"/>
        <path d="M 213 1659 
Q 213 2581 725 3025 
Q 1153 3394 1769 3394 
Q 2453 3394 2887 2945 
Q 3322 2497 3322 1706 
Q 3322 1066 3130 698 
Q 2938 331 2570 128 
Q 2203 -75 1769 -75 
Q 1072 -75 642 372 
Q 213 819 213 1659 
z
M 791 1659 
Q 791 1022 1069 705 
Q 1347 388 1769 388 
Q 2188 388 2466 706 
Q 2744 1025 2744 1678 
Q 2744 2294 2464 2611 
Q 2184 2928 1769 2928 
Q 1347 2928 1069 2612 
Q 791 2297 791 1659 
z
" id="ArialMT-6f" transform="scale(0.015625)"/>
       </defs>
       <use xlink:href="#ArialMT-41"/>
       <use x="66.699219" xlink:href="#ArialMT-64"/>
       <use x="122.314453" xlink:href="#ArialMT-6d"/>
       <use x="205.615234" xlink:href="#ArialMT-69"/>
       <use x="227.832031" xlink:href="#ArialMT-6e"/>
       <use x="283.447266" xlink:href="#ArialMT-69"/>
       <use x="305.664062" xlink:href="#ArialMT-73"/>
       <use x="355.664062" xlink:href="#ArialMT-74"/>
       <use x="383.447266" xlink:href="#ArialMT-72"/>
       <use x="416.748047" xlink:href="#ArialMT-61"/>
       <use x="472.363281" xlink:href="#ArialMT-74"/>
       <use x="500.146484" xlink:href="#ArialMT-69"/>
       <use x="522.363281" xlink:href="#ArialMT-6f"/>
       <use x="577.978516" xlink:href="#ArialMT-6e"/>
      </g>
     </g>
    </g>
    <g id="xtick_3">
     <g id="text_3">
      <!-- Marketing Spend -->
      <g style="fill:#262626;" transform="translate(640.873594 273.387188)scale(0.1 -0.1)">
       <defs>
        <path d="M 475 0 
L 475 4581 
L 1388 4581 
L 2472 1338 
Q 2622 884 2691 659 
Q 2769 909 2934 1394 
L 4031 4581 
L 4847 4581 
L 4847 0 
L 4263 0 
L 4263 3834 
L 2931 0 
L 2384 0 
L 1059 3900 
L 1059 0 
L 475 0 
z
" id="ArialMT-4d" transform="scale(0.015625)"/>
        <path d="M 425 0 
L 425 4581 
L 988 4581 
L 988 1969 
L 2319 3319 
L 3047 3319 
L 1778 2088 
L 3175 0 
L 2481 0 
L 1384 1697 
L 988 1316 
L 988 0 
L 425 0 
z
" id="ArialMT-6b" transform="scale(0.015625)"/>
        <path d="M 319 -275 
L 866 -356 
Q 900 -609 1056 -725 
Q 1266 -881 1628 -881 
Q 2019 -881 2231 -725 
Q 2444 -569 2519 -288 
Q 2563 -116 2559 434 
Q 2191 0 1641 0 
Q 956 0 581 494 
Q 206 988 206 1678 
Q 206 2153 378 2554 
Q 550 2956 876 3175 
Q 1203 3394 1644 3394 
Q 2231 3394 2613 2919 
L 2613 3319 
L 3131 3319 
L 3131 450 
Q 3131 -325 2973 -648 
Q 2816 -972 2473 -1159 
Q 2131 -1347 1631 -1347 
Q 1038 -1347 672 -1080 
Q 306 -813 319 -275 
z
M 784 1719 
Q 784 1066 1043 766 
Q 1303 466 1694 466 
Q 2081 466 2343 764 
Q 2606 1063 2606 1700 
Q 2606 2309 2336 2618 
Q 2066 2928 1684 2928 
Q 1309 2928 1046 2623 
Q 784 2319 784 1719 
z
" id="ArialMT-67" transform="scale(0.015625)"/>
       </defs>
       <use xlink:href="#ArialMT-4d"/>
       <use x="83.300781" xlink:href="#ArialMT-61"/>
       <use x="138.916016" xlink:href="#ArialMT-72"/>
       <use x="172.216797" xlink:href="#ArialMT-6b"/>
       <use x="222.216797" xlink:href="#ArialMT-65"/>
       <use x="277.832031" xlink:href="#ArialMT-74"/>
       <use x="305.615234" xlink:href="#ArialMT-69"/>
       <use x="327.832031" xlink:href="#ArialMT-6e"/>
       <use x="383.447266" xlink:href="#ArialMT-67"/>
       <use x="439.0625" xlink:href="#ArialMT-20"/>
       <use x="466.845703" xlink:href="#ArialMT-53"/>
       <use x="533.544922" xlink:href="#ArialMT-70"/>
       <use x="589.160156" xlink:href="#ArialMT-65"/>
       <use x="644.775391" xlink:href="#ArialMT-6e"/>
       <use x="700.390625" xlink:href="#ArialMT-64"/>
      </g>
     </g>
    </g>
    <g id="xtick_4">
     <g id="text_4">
      <!-- Profit -->
      <g style="fill:#262626;" transform="translate(925.914219 273.265312)scale(0.1 -0.1)">
       <defs>
        <path d="M 494 0 
L 494 4581 
L 2222 4581 
Q 2678 4581 2919 4538 
Q 3256 4481 3484 4323 
Q 3713 4166 3852 3881 
Q 3991 3597 3991 3256 
Q 3991 2672 3619 2267 
Q 3247 1863 2275 1863 
L 1100 1863 
L 1100 0 
L 494 0 
z
M 1100 2403 
L 2284 2403 
Q 2872 2403 3119 2622 
Q 3366 2841 3366 3238 
Q 3366 3525 3220 3729 
Q 3075 3934 2838 4000 
Q 2684 4041 2272 4041 
L 1100 4041 
L 1100 2403 
z
" id="ArialMT-50" transform="scale(0.015625)"/>
        <path d="M 556 0 
L 556 2881 
L 59 2881 
L 59 3319 
L 556 3319 
L 556 3672 
Q 556 4006 616 4169 
Q 697 4388 901 4523 
Q 1106 4659 1475 4659 
Q 1713 4659 2000 4603 
L 1916 4113 
Q 1741 4144 1584 4144 
Q 1328 4144 1222 4034 
Q 1116 3925 1116 3625 
L 1116 3319 
L 1763 3319 
L 1763 2881 
L 1116 2881 
L 1116 0 
L 556 0 
z
" id="ArialMT-66" transform="scale(0.015625)"/>
       </defs>
       <use xlink:href="#ArialMT-50"/>
       <use x="66.699219" xlink:href="#ArialMT-72"/>
       <use x="100" xlink:href="#ArialMT-6f"/>
       <use x="155.615234" xlink:href="#ArialMT-66"/>
       <use x="183.398438" xlink:href="#ArialMT-69"/>
       <use x="205.615234" xlink:href="#ArialMT-74"/>
      </g>
     </g>
    </g>
   </g>
   <g id="matplotlib.axis_2">
    <g id="ytick_1">
     <g id="line2d_1">
      <path clip-path="url(#pd5a4f7505c)" d="M 31.39 236.417315 
L 1067.04 236.417315 
" style="fill:none;stroke:#ffffff;stroke-linecap:round;"/>
     </g>
     <g id="text_5">
      <!-- −3 -->
      <g style="fill:#262626;" transform="translate(12.988438 239.996221)scale(0.1 -0.1)">
       <defs>
        <path d="M 3381 1997 
L 356 1997 
L 356 2522 
L 3381 2522 
L 3381 1997 
z
" id="ArialMT-2212" transform="scale(0.015625)"/>
        <path d="M 269 1209 
L 831 1284 
Q 928 806 1161 595 
Q 1394 384 1728 384 
Q 2125 384 2398 659 
Q 2672 934 2672 1341 
Q 2672 1728 2419 1979 
Q 2166 2231 1775 2231 
Q 1616 2231 1378 2169 
L 1441 2663 
Q 1497 2656 1531 2656 
Q 1891 2656 2178 2843 
Q 2466 3031 2466 3422 
Q 2466 3731 2256 3934 
Q 2047 4138 1716 4138 
Q 1388 4138 1169 3931 
Q 950 3725 888 3313 
L 325 3413 
Q 428 3978 793 4289 
Q 1159 4600 1703 4600 
Q 2078 4600 2393 4439 
Q 2709 4278 2876 4000 
Q 3044 3722 3044 3409 
Q 3044 3113 2884 2869 
Q 2725 2625 2413 2481 
Q 2819 2388 3044 2092 
Q 3269 1797 3269 1353 
Q 3269 753 2831 336 
Q 2394 -81 1725 -81 
Q 1122 -81 723 278 
Q 325 638 269 1209 
z
" id="ArialMT-33" transform="scale(0.015625)"/>
       </defs>
       <use xlink:href="#ArialMT-2212"/>
       <use x="58.398438" xlink:href="#ArialMT-33"/>
      </g>
     </g>
    </g>
    <g id="ytick_2">
     <g id="line2d_2">
      <path clip-path="url(#pd5a4f7505c)" d="M 31.39 205.800592 
L 1067.04 205.800592 
" style="fill:none;stroke:#ffffff;stroke-linecap:round;"/>
     </g>
     <g id="text_6">
      <!-- −2 -->
      <g style="fill:#262626;" transform="translate(12.988438 209.379498)scale(0.1 -0.1)">
       <defs>
        <path d="M 3222 541 
L 3222 0 
L 194 0 
Q 188 203 259 391 
Q 375 700 629 1000 
Q 884 1300 1366 1694 
Q 2113 2306 2375 2664 
Q 2638 3022 2638 3341 
Q 2638 3675 2398 3904 
Q 2159 4134 1775 4134 
Q 1369 4134 1125 3890 
Q 881 3647 878 3216 
L 300 3275 
Q 359 3922 746 4261 
Q 1134 4600 1788 4600 
Q 2447 4600 2831 4234 
Q 3216 3869 3216 3328 
Q 3216 3053 3103 2787 
Q 2991 2522 2730 2228 
Q 2469 1934 1863 1422 
Q 1356 997 1212 845 
Q 1069 694 975 541 
L 3222 541 
z
" id="ArialMT-32" transform="scale(0.015625)"/>
       </defs>
       <use xlink:href="#ArialMT-2212"/>
       <use x="58.398438" xlink:href="#ArialMT-32"/>
      </g>
     </g>
    </g>
    <g id="ytick_3">
     <g id="line2d_3">
      <path clip-path="url(#pd5a4f7505c)" d="M 31.39 175.183869 
L 1067.04 175.183869 
" style="fill:none;stroke:#ffffff;stroke-linecap:round;"/>
     </g>
     <g id="text_7">
      <!-- −1 -->
      <g style="fill:#262626;" transform="translate(12.988438 178.762776)scale(0.1 -0.1)">
       <defs>
        <path d="M 2384 0 
L 1822 0 
L 1822 3584 
Q 1619 3391 1289 3197 
Q 959 3003 697 2906 
L 697 3450 
Q 1169 3672 1522 3987 
Q 1875 4303 2022 4600 
L 2384 4600 
L 2384 0 
z
" id="ArialMT-31" transform="scale(0.015625)"/>
       </defs>
       <use xlink:href="#ArialMT-2212"/>
       <use x="58.398438" xlink:href="#ArialMT-31"/>
      </g>
     </g>
    </g>
    <g id="ytick_4">
     <g id="line2d_4">
      <path clip-path="url(#pd5a4f7505c)" d="M 31.39 144.567147 
L 1067.04 144.567147 
" style="fill:none;stroke:#ffffff;stroke-linecap:round;"/>
     </g>
     <g id="text_8">
      <!-- 0 -->
      <g style="fill:#262626;" transform="translate(18.829063 148.146053)scale(0.1 -0.1)">
       <defs>
        <path d="M 266 2259 
Q 266 3072 433 3567 
Q 600 4063 929 4331 
Q 1259 4600 1759 4600 
Q 2128 4600 2406 4451 
Q 2684 4303 2865 4023 
Q 3047 3744 3150 3342 
Q 3253 2941 3253 2259 
Q 3253 1453 3087 958 
Q 2922 463 2592 192 
Q 2263 -78 1759 -78 
Q 1097 -78 719 397 
Q 266 969 266 2259 
z
M 844 2259 
Q 844 1131 1108 757 
Q 1372 384 1759 384 
Q 2147 384 2411 759 
Q 2675 1134 2675 2259 
Q 2675 3391 2411 3762 
Q 2147 4134 1753 4134 
Q 1366 4134 1134 3806 
Q 844 3388 844 2259 
z
" id="ArialMT-30" transform="scale(0.015625)"/>
       </defs>
       <use xlink:href="#ArialMT-30"/>
      </g>
     </g>
    </g>
    <g id="ytick_5">
     <g id="line2d_5">
      <path clip-path="url(#pd5a4f7505c)" d="M 31.39 113.950424 
L 1067.04 113.950424 
" style="fill:none;stroke:#ffffff;stroke-linecap:round;"/>
     </g>
     <g id="text_9">
      <!-- 1 -->
      <g style="fill:#262626;" transform="translate(18.829063 117.52933)scale(0.1 -0.1)">
       <use xlink:href="#ArialMT-31"/>
      </g>
     </g>
    </g>
    <g id="ytick_6">
     <g id="line2d_6">
      <path clip-path="url(#pd5a4f7505c)" d="M 31.39 83.333701 
L 1067.04 83.333701 
" style="fill:none;stroke:#ffffff;stroke-linecap:round;"/>
     </g>
     <g id="text_10">
      <!-- 2 -->
      <g style="fill:#262626;" transform="translate(18.829063 86.912607)scale(0.1 -0.1)">
       <use xlink:href="#ArialMT-32"/>
      </g>
     </g>
    </g>
    <g id="ytick_7">
     <g id="line2d_7">
      <path clip-path="url(#pd5a4f7505c)" d="M 31.39 52.716978 
L 1067.04 52.716978 
" style="fill:none;stroke:#ffffff;stroke-linecap:round;"/>
     </g>
     <g id="text_11">
      <!-- 3 -->
      <g style="fill:#262626;" transform="translate(18.829063 56.295884)scale(0.1 -0.1)">
       <use xlink:href="#ArialMT-33"/>
      </g>
     </g>
    </g>
   </g>
   <g id="PolyCollection_1">
    <defs>
     <path d="M 164.386898 -66.258304 
L 157.305602 -66.258304 
L 156.312622 -67.938025 
L 155.11619 -69.617745 
L 153.69644 -71.297466 
L 152.037151 -72.977187 
L 150.127145 -74.656908 
L 147.96159 -76.336628 
L 145.543053 -78.016349 
L 142.882218 -79.69607 
L 139.998149 -81.37579 
L 136.918047 -83.055511 
L 133.676473 -84.735232 
L 130.314066 -86.414952 
L 126.87584 -88.094673 
L 123.409152 -89.774394 
L 119.961505 -91.454114 
L 116.578317 -93.133835 
L 113.300807 -94.813556 
L 110.164121 -96.493276 
L 107.195797 -98.172997 
L 104.414622 -99.852718 
L 101.82992 -101.532438 
L 99.441275 -103.212159 
L 97.238694 -104.89188 
L 95.203192 -106.571601 
L 93.307801 -108.251321 
L 91.518986 -109.931042 
L 89.798476 -111.610763 
L 88.10547 -113.290483 
L 86.399183 -114.970204 
L 84.641638 -116.649925 
L 82.800576 -118.329645 
L 80.852304 -120.009366 
L 78.784281 -121.689087 
L 76.597189 -123.368807 
L 74.306283 -125.048528 
L 71.941813 -126.728249 
L 69.548396 -128.407969 
L 67.183286 -130.08769 
L 64.913601 -131.767411 
L 62.812655 -133.447132 
L 60.955647 -135.126852 
L 59.41503 -136.806573 
L 58.255907 -138.486294 
L 57.531817 -140.166014 
L 57.28125 -141.845735 
L 57.525137 -143.525456 
L 58.26551 -145.205176 
L 59.485387 -146.884897 
L 61.14988 -148.564618 
L 63.208379 -150.244338 
L 65.597639 -151.924059 
L 68.245518 -153.60378 
L 71.075077 -155.2835 
L 74.008773 -156.963221 
L 76.972476 -158.642942 
L 79.899067 -160.322662 
L 82.731419 -162.002383 
L 85.424631 -163.682104 
L 87.947405 -165.361825 
L 90.282544 -167.041545 
L 92.426585 -168.721266 
L 94.388654 -170.400987 
L 96.18865 -172.080707 
L 97.854939 -173.760428 
L 99.421733 -175.440149 
L 100.926367 -177.119869 
L 102.406669 -178.79959 
L 103.8986 -180.479311 
L 105.434291 -182.159031 
L 107.040592 -183.838752 
L 108.738146 -185.518473 
L 110.540985 -187.198193 
L 112.45658 -188.877914 
L 114.486257 -190.557635 
L 116.625862 -192.237356 
L 118.866553 -193.917076 
L 121.195635 -195.596797 
L 123.597351 -197.276518 
L 126.053585 -198.956238 
L 128.544469 -200.635959 
L 131.048904 -202.31568 
L 133.545025 -203.9954 
L 136.010648 -205.675121 
L 138.423737 -207.354842 
L 140.762906 -209.034562 
L 143.007964 -210.714283 
L 145.14049 -212.394004 
L 147.144401 -214.073724 
L 149.006464 -215.753445 
L 150.716731 -217.433166 
L 152.268816 -219.112886 
L 153.66002 -220.792607 
L 154.891267 -222.472328 
L 155.966857 -224.152049 
L 156.894074 -225.831769 
L 157.682654 -227.51149 
L 158.344187 -229.191211 
L 158.891484 -230.870931 
L 159.337956 -232.550652 
L 162.354544 -232.550652 
L 162.354544 -232.550652 
L 162.801016 -230.870931 
L 163.348313 -229.191211 
L 164.009846 -227.51149 
L 164.798426 -225.831769 
L 165.725643 -224.152049 
L 166.801233 -222.472328 
L 168.03248 -220.792607 
L 169.423684 -219.112886 
L 170.975769 -217.433166 
L 172.686036 -215.753445 
L 174.548099 -214.073724 
L 176.55201 -212.394004 
L 178.684536 -210.714283 
L 180.929594 -209.034562 
L 183.268763 -207.354842 
L 185.681852 -205.675121 
L 188.147475 -203.9954 
L 190.643596 -202.31568 
L 193.148031 -200.635959 
L 195.638915 -198.956238 
L 198.095149 -197.276518 
L 200.496865 -195.596797 
L 202.825947 -193.917076 
L 205.066638 -192.237356 
L 207.206243 -190.557635 
L 209.23592 -188.877914 
L 211.151515 -187.198193 
L 212.954354 -185.518473 
L 214.651908 -183.838752 
L 216.258209 -182.159031 
L 217.7939 -180.479311 
L 219.285831 -178.79959 
L 220.766133 -177.119869 
L 222.270767 -175.440149 
L 223.837561 -173.760428 
L 225.50385 -172.080707 
L 227.303846 -170.400987 
L 229.265915 -168.721266 
L 231.409956 -167.041545 
L 233.745095 -165.361825 
L 236.267869 -163.682104 
L 238.961081 -162.002383 
L 241.793433 -160.322662 
L 244.720024 -158.642942 
L 247.683727 -156.963221 
L 250.617423 -155.2835 
L 253.446982 -153.60378 
L 256.094861 -151.924059 
L 258.484121 -150.244338 
L 260.54262 -148.564618 
L 262.207113 -146.884897 
L 263.42699 -145.205176 
L 264.167363 -143.525456 
L 264.41125 -141.845735 
L 264.160683 -140.166014 
L 263.436593 -138.486294 
L 262.27747 -136.806573 
L 260.736853 -135.126852 
L 258.879845 -133.447132 
L 256.778899 -131.767411 
L 254.509214 -130.08769 
L 252.144104 -128.407969 
L 249.750687 -126.728249 
L 247.386217 -125.048528 
L 245.095311 -123.368807 
L 242.908219 -121.689087 
L 240.840196 -120.009366 
L 238.891924 -118.329645 
L 237.050862 -116.649925 
L 235.293317 -114.970204 
L 233.58703 -113.290483 
L 231.894024 -111.610763 
L 230.173514 -109.931042 
L 228.384699 -108.251321 
L 226.489308 -106.571601 
L 224.453806 -104.89188 
L 222.251225 -103.212159 
L 219.86258 -101.532438 
L 217.277878 -99.852718 
L 214.496703 -98.172997 
L 211.528379 -96.493276 
L 208.391693 -94.813556 
L 205.114183 -93.133835 
L 201.730995 -91.454114 
L 198.283348 -89.774394 
L 194.81666 -88.094673 
L 191.378434 -86.414952 
L 188.016027 -84.735232 
L 184.774453 -83.055511 
L 181.694351 -81.37579 
L 178.810282 -79.69607 
L 176.149447 -78.016349 
L 173.73091 -76.336628 
L 171.565355 -74.656908 
L 169.655349 -72.977187 
L 167.99606 -71.297466 
L 166.57631 -69.617745 
L 165.379878 -67.938025 
L 164.386898 -66.258304 
z
" id="m42eeb39d46" style="stroke:#4c4c4c;stroke-width:3;"/>
    </defs>
    <g clip-path="url(#pd5a4f7505c)">
     <use style="fill:#5875a4;stroke:#4c4c4c;stroke-width:3;" x="0" xlink:href="#m42eeb39d46" y="288"/>
    </g>
   </g>
   <g id="PolyCollection_2">
    <defs>
     <path d="M 421.07796 -38.870114 
L 418.43954 -38.870114 
L 418.004718 -40.885793 
L 417.472428 -42.901473 
L 416.836734 -44.917152 
L 416.096431 -46.932832 
L 415.256206 -48.948511 
L 414.327382 -50.964191 
L 413.328062 -52.97987 
L 412.282504 -54.99555 
L 411.219677 -57.011229 
L 410.171028 -59.026909 
L 409.167617 -61.042588 
L 408.236906 -63.058268 
L 407.399515 -65.073947 
L 406.666342 -67.089627 
L 406.036395 -69.105306 
L 405.495606 -71.120986 
L 405.01682 -73.136666 
L 404.560998 -75.152345 
L 404.079549 -77.168025 
L 403.517601 -79.183704 
L 402.817917 -81.199384 
L 401.925103 -83.215063 
L 400.789733 -85.230743 
L 399.372025 -87.246422 
L 397.644712 -89.262102 
L 395.594857 -91.277781 
L 393.22442 -93.293461 
L 390.54954 -95.30914 
L 387.598577 -97.32482 
L 384.40915 -99.340499 
L 381.024481 -101.356179 
L 377.489458 -103.371858 
L 373.846865 -105.387538 
L 370.134226 -107.403217 
L 366.381626 -109.418897 
L 362.610786 -111.434576 
L 358.835516 -113.450256 
L 355.063501 -115.465935 
L 351.299231 -117.481615 
L 347.547723 -119.497295 
L 343.818542 -121.512974 
L 340.129567 -123.528654 
L 336.509905 -125.544333 
L 333.001404 -127.560013 
L 329.658352 -129.575692 
L 326.545132 -131.591372 
L 323.731886 -133.607051 
L 321.288539 -135.622731 
L 319.277799 -137.63841 
L 317.748017 -139.65409 
L 316.726878 -141.669769 
L 316.216929 -143.685449 
L 316.19375 -145.701128 
L 316.607319 -147.716808 
L 317.386674 -149.732487 
L 318.44755 -151.748167 
L 319.702204 -153.763846 
L 321.070262 -155.779526 
L 322.489211 -157.795205 
L 323.923101 -159.810885 
L 325.368163 -161.826565 
L 326.854414 -163.842244 
L 328.442813 -165.857924 
L 330.218114 -167.873603 
L 332.278169 -169.889283 
L 334.720958 -171.904962 
L 337.630957 -173.920642 
L 341.066626 -175.936321 
L 345.050656 -177.952001 
L 349.564265 -179.96768 
L 354.546293 -181.98336 
L 359.897194 -183.999039 
L 365.487339 -186.014719 
L 371.168522 -188.030398 
L 376.787122 -190.046078 
L 382.197287 -192.061757 
L 387.272551 -194.077437 
L 391.914641 -196.093116 
L 396.058693 -198.108796 
L 399.674609 -200.124475 
L 402.76485 -202.140155 
L 405.359333 -204.155834 
L 407.508407 -206.171514 
L 409.274985 -208.187194 
L 410.726854 -210.202873 
L 411.929991 -212.218553 
L 412.943473 -214.234232 
L 413.816226 -216.249912 
L 414.58562 -218.265591 
L 415.277658 -220.281271 
L 415.908366 -222.29695 
L 416.485922 -224.31263 
L 417.013085 -226.328309 
L 417.48952 -228.343989 
L 417.913773 -230.359668 
L 418.284725 -232.375348 
L 418.602485 -234.391027 
L 418.868777 -236.406707 
L 419.086918 -238.422386 
L 420.430582 -238.422386 
L 420.430582 -238.422386 
L 420.648723 -236.406707 
L 420.915015 -234.391027 
L 421.232775 -232.375348 
L 421.603727 -230.359668 
L 422.02798 -228.343989 
L 422.504415 -226.328309 
L 423.031578 -224.31263 
L 423.609134 -222.29695 
L 424.239842 -220.281271 
L 424.93188 -218.265591 
L 425.701274 -216.249912 
L 426.574027 -214.234232 
L 427.587509 -212.218553 
L 428.790646 -210.202873 
L 430.242515 -208.187194 
L 432.009093 -206.171514 
L 434.158167 -204.155834 
L 436.75265 -202.140155 
L 439.842891 -200.124475 
L 443.458807 -198.108796 
L 447.602859 -196.093116 
L 452.244949 -194.077437 
L 457.320213 -192.061757 
L 462.730378 -190.046078 
L 468.348978 -188.030398 
L 474.030161 -186.014719 
L 479.620306 -183.999039 
L 484.971207 -181.98336 
L 489.953235 -179.96768 
L 494.466844 -177.952001 
L 498.450874 -175.936321 
L 501.886543 -173.920642 
L 504.796542 -171.904962 
L 507.239331 -169.889283 
L 509.299386 -167.873603 
L 511.074687 -165.857924 
L 512.663086 -163.842244 
L 514.149337 -161.826565 
L 515.594399 -159.810885 
L 517.028289 -157.795205 
L 518.447238 -155.779526 
L 519.815296 -153.763846 
L 521.06995 -151.748167 
L 522.130826 -149.732487 
L 522.910181 -147.716808 
L 523.32375 -145.701128 
L 523.300571 -143.685449 
L 522.790622 -141.669769 
L 521.769483 -139.65409 
L 520.239701 -137.63841 
L 518.228961 -135.622731 
L 515.785614 -133.607051 
L 512.972368 -131.591372 
L 509.859148 -129.575692 
L 506.516096 -127.560013 
L 503.007595 -125.544333 
L 499.387933 -123.528654 
L 495.698958 -121.512974 
L 491.969777 -119.497295 
L 488.218269 -117.481615 
L 484.453999 -115.465935 
L 480.681984 -113.450256 
L 476.906714 -111.434576 
L 473.135874 -109.418897 
L 469.383274 -107.403217 
L 465.670635 -105.387538 
L 462.028042 -103.371858 
L 458.493019 -101.356179 
L 455.10835 -99.340499 
L 451.918923 -97.32482 
L 448.96796 -95.30914 
L 446.29308 -93.293461 
L 443.922643 -91.277781 
L 441.872788 -89.262102 
L 440.145475 -87.246422 
L 438.727767 -85.230743 
L 437.592397 -83.215063 
L 436.699583 -81.199384 
L 435.999899 -79.183704 
L 435.437951 -77.168025 
L 434.956502 -75.152345 
L 434.50068 -73.136666 
L 434.021894 -71.120986 
L 433.481105 -69.105306 
L 432.851158 -67.089627 
L 432.117985 -65.073947 
L 431.280594 -63.058268 
L 430.349883 -61.042588 
L 429.346472 -59.026909 
L 428.297823 -57.011229 
L 427.234996 -54.99555 
L 426.189438 -52.97987 
L 425.190118 -50.964191 
L 424.261294 -48.948511 
L 423.421069 -46.932832 
L 422.680766 -44.917152 
L 422.045072 -42.901473 
L 421.512782 -40.885793 
L 421.07796 -38.870114 
z
" id="m62520bba08" style="stroke:#4c4c4c;stroke-width:3;"/>
    </defs>
    <g clip-path="url(#pd5a4f7505c)">
     <use style="fill:#5f9e6e;stroke:#4c4c4c;stroke-width:3;" x="0" xlink:href="#m62520bba08" y="288"/>
    </g>
   </g>
   <g id="PolyCollection_3">
    <defs>
     <path d="M 682.039234 -62.598038 
L 675.303266 -62.598038 
L 674.302324 -64.356837 
L 673.08516 -66.115635 
L 671.630398 -67.874434 
L 669.921643 -69.633232 
L 667.949438 -71.392031 
L 665.71308 -73.150829 
L 663.222057 -74.909628 
L 660.496927 -76.668427 
L 657.569418 -78.427225 
L 654.481651 -80.186024 
L 651.284416 -81.944822 
L 648.034542 -83.703621 
L 644.791534 -85.46242 
L 641.613709 -87.221218 
L 638.554175 -88.980017 
L 635.657025 -90.738815 
L 632.954141 -92.497614 
L 630.46294 -94.256413 
L 628.185337 -96.015211 
L 626.108037 -97.77401 
L 624.204182 -99.532808 
L 622.436177 -101.291607 
L 620.759433 -103.050406 
L 619.126633 -104.809204 
L 617.492093 -106.568003 
L 615.815785 -108.326801 
L 614.066623 -110.0856 
L 612.224727 -111.844398 
L 610.282479 -113.603197 
L 608.244346 -115.361996 
L 606.125565 -117.120794 
L 603.949899 -118.879593 
L 601.746767 -120.638391 
L 599.548083 -122.39719 
L 597.385148 -124.155989 
L 595.285903 -125.914787 
L 593.27279 -127.673586 
L 591.361399 -129.432384 
L 589.55996 -131.191183 
L 587.869711 -132.949982 
L 586.286039 -134.70878 
L 584.800282 -136.467579 
L 583.402005 -138.226377 
L 582.081536 -139.985176 
L 580.832549 -141.743975 
L 579.654446 -143.502773 
L 578.554315 -145.261572 
L 577.548265 -147.02037 
L 576.661947 -148.779169 
L 575.930172 -150.537967 
L 575.395555 -152.296766 
L 575.10625 -154.055565 
L 575.112894 -155.814363 
L 575.464994 -157.573162 
L 576.207063 -159.33196 
L 577.374844 -161.090759 
L 578.991989 -162.849558 
L 581.067527 -164.608356 
L 583.594373 -166.367155 
L 586.549041 -168.125953 
L 589.892584 -169.884752 
L 593.572659 -171.643551 
L 597.526515 -173.402349 
L 601.684592 -175.161148 
L 605.974393 -176.919946 
L 610.324284 -178.678745 
L 614.666917 -180.437543 
L 618.942038 -182.196342 
L 623.098541 -183.955141 
L 627.095707 -185.713939 
L 630.903666 -187.472738 
L 634.503152 -189.231536 
L 637.884708 -190.990335 
L 641.047459 -192.749134 
L 643.997617 -194.507932 
L 646.746827 -196.266731 
L 649.310479 -198.025529 
L 651.706061 -199.784328 
L 653.951645 -201.543127 
L 656.064537 -203.301925 
L 658.060179 -205.060724 
L 659.95132 -206.819522 
L 661.747494 -208.578321 
L 663.45482 -210.33712 
L 665.076117 -212.095918 
L 666.611294 -213.854717 
L 668.057977 -215.613515 
L 669.412283 -217.372314 
L 670.669671 -219.131112 
L 671.825777 -220.889911 
L 672.877153 -222.64871 
L 673.821858 -224.407508 
L 674.65984 -226.166307 
L 675.393115 -227.925105 
L 676.025741 -229.683904 
L 676.563611 -231.442703 
L 677.014119 -233.201501 
L 677.385739 -234.9603 
L 677.687576 -236.719098 
L 679.654924 -236.719098 
L 679.654924 -236.719098 
L 679.956761 -234.9603 
L 680.328381 -233.201501 
L 680.778889 -231.442703 
L 681.316759 -229.683904 
L 681.949385 -227.925105 
L 682.68266 -226.166307 
L 683.520642 -224.407508 
L 684.465347 -222.64871 
L 685.516723 -220.889911 
L 686.672829 -219.131112 
L 687.930217 -217.372314 
L 689.284523 -215.613515 
L 690.731206 -213.854717 
L 692.266383 -212.095918 
L 693.88768 -210.33712 
L 695.595006 -208.578321 
L 697.39118 -206.819522 
L 699.282321 -205.060724 
L 701.277963 -203.301925 
L 703.390855 -201.543127 
L 705.636439 -199.784328 
L 708.032021 -198.025529 
L 710.595673 -196.266731 
L 713.344883 -194.507932 
L 716.295041 -192.749134 
L 719.457792 -190.990335 
L 722.839348 -189.231536 
L 726.438834 -187.472738 
L 730.246793 -185.713939 
L 734.243959 -183.955141 
L 738.400462 -182.196342 
L 742.675583 -180.437543 
L 747.018216 -178.678745 
L 751.368107 -176.919946 
L 755.657908 -175.161148 
L 759.815985 -173.402349 
L 763.769841 -171.643551 
L 767.449916 -169.884752 
L 770.793459 -168.125953 
L 773.748127 -166.367155 
L 776.274973 -164.608356 
L 778.350511 -162.849558 
L 779.967656 -161.090759 
L 781.135437 -159.33196 
L 781.877506 -157.573162 
L 782.229606 -155.814363 
L 782.23625 -154.055565 
L 781.946945 -152.296766 
L 781.412328 -150.537967 
L 780.680553 -148.779169 
L 779.794235 -147.02037 
L 778.788185 -145.261572 
L 777.688054 -143.502773 
L 776.509951 -141.743975 
L 775.260964 -139.985176 
L 773.940495 -138.226377 
L 772.542218 -136.467579 
L 771.056461 -134.70878 
L 769.472789 -132.949982 
L 767.78254 -131.191183 
L 765.981101 -129.432384 
L 764.06971 -127.673586 
L 762.056597 -125.914787 
L 759.957352 -124.155989 
L 757.794417 -122.39719 
L 755.595733 -120.638391 
L 753.392601 -118.879593 
L 751.216935 -117.120794 
L 749.098154 -115.361996 
L 747.060021 -113.603197 
L 745.117773 -111.844398 
L 743.275877 -110.0856 
L 741.526715 -108.326801 
L 739.850407 -106.568003 
L 738.215867 -104.809204 
L 736.583067 -103.050406 
L 734.906323 -101.291607 
L 733.138318 -99.532808 
L 731.234463 -97.77401 
L 729.157163 -96.015211 
L 726.87956 -94.256413 
L 724.388359 -92.497614 
L 721.685475 -90.738815 
L 718.788325 -88.980017 
L 715.728791 -87.221218 
L 712.550966 -85.46242 
L 709.307958 -83.703621 
L 706.058084 -81.944822 
L 702.860849 -80.186024 
L 699.773082 -78.427225 
L 696.845573 -76.668427 
L 694.120443 -74.909628 
L 691.62942 -73.150829 
L 689.393062 -71.392031 
L 687.420857 -69.633232 
L 685.712102 -67.874434 
L 684.25734 -66.115635 
L 683.040176 -64.356837 
L 682.039234 -62.598038 
z
" id="md9fb77a8aa" style="stroke:#4c4c4c;stroke-width:3;"/>
    </defs>
    <g clip-path="url(#pd5a4f7505c)">
     <use style="fill:#b55d60;stroke:#4c4c4c;stroke-width:3;" x="0" xlink:href="#md9fb77a8aa" y="288"/>
    </g>
   </g>
   <g id="PolyCollection_4">
    <defs>
     <path d="M 938.255173 -41.497322 
L 936.912327 -41.497322 
L 936.696373 -43.42556 
L 936.430287 -45.353797 
L 936.108517 -47.282034 
L 935.726437 -49.210271 
L 935.280658 -51.138508 
L 934.769227 -53.066745 
L 934.19169 -54.994982 
L 933.548996 -56.923219 
L 932.843244 -58.851457 
L 932.077289 -60.779694 
L 931.254281 -62.707931 
L 930.37717 -64.636168 
L 929.448267 -66.564405 
L 928.468893 -68.492642 
L 927.439143 -70.420879 
L 926.357756 -72.349116 
L 925.222055 -74.277354 
L 924.027909 -76.205591 
L 922.769649 -78.133828 
L 921.439923 -80.062065 
L 920.029482 -81.990302 
L 918.526956 -83.918539 
L 916.918691 -85.846776 
L 915.188761 -87.775013 
L 913.319243 -89.703251 
L 911.290819 -91.631488 
L 909.083701 -93.559725 
L 906.678832 -95.487962 
L 904.05922 -97.416199 
L 901.211292 -99.344436 
L 898.126094 -101.272673 
L 894.80027 -103.20091 
L 891.236779 -105.129148 
L 887.445398 -107.057385 
L 883.443134 -108.985622 
L 879.254657 -110.913859 
L 874.912866 -112.842096 
L 870.459574 -114.770333 
L 865.946235 -116.69857 
L 861.434445 -118.626807 
L 856.995919 -120.555045 
L 852.711579 -122.483282 
L 848.669458 -124.411519 
L 844.961275 -126.339756 
L 841.677756 -128.267993 
L 838.903005 -130.19623 
L 836.708481 -132.124467 
L 835.147262 -134.052704 
L 834.24936 -135.980942 
L 834.01875 -137.909179 
L 834.432579 -139.837416 
L 835.442772 -141.765653 
L 836.979892 -143.69389 
L 838.95887 -145.622127 
L 841.28593 -147.550364 
L 843.86597 -149.478601 
L 846.609596 -151.406839 
L 849.43911 -153.335076 
L 852.292929 -155.263313 
L 855.128088 -157.19155 
L 857.920739 -159.119787 
L 860.664717 -161.048024 
L 863.368462 -162.976261 
L 866.050696 -164.904498 
L 868.735338 -166.832736 
L 871.446244 -168.760973 
L 874.202304 -170.68921 
L 877.013461 -172.617447 
L 879.878086 -174.545684 
L 882.782023 -176.473921 
L 885.699442 -178.402158 
L 888.595399 -180.330395 
L 891.429795 -182.258633 
L 894.162209 -184.18687 
L 896.756969 -186.115107 
L 899.187732 -188.043344 
L 901.440932 -189.971581 
L 903.517579 -191.899818 
L 905.433152 -193.828055 
L 907.21558 -195.756292 
L 908.901609 -197.68453 
L 910.532071 -199.612767 
L 912.146736 -201.541004 
L 913.779442 -203.469241 
L 915.454175 -205.397478 
L 917.182556 -207.325715 
L 918.962985 -209.253952 
L 920.781453 -211.182189 
L 922.613771 -213.110427 
L 924.428809 -215.038664 
L 926.192242 -216.966901 
L 927.870267 -218.895138 
L 929.43286 -220.823375 
L 930.856229 -222.751612 
L 932.124294 -224.679849 
L 933.229181 -226.608086 
L 934.170823 -228.536324 
L 934.9559 -230.464561 
L 935.596329 -232.392798 
L 939.571171 -232.392798 
L 939.571171 -232.392798 
L 940.2116 -230.464561 
L 940.996677 -228.536324 
L 941.938319 -226.608086 
L 943.043206 -224.679849 
L 944.311271 -222.751612 
L 945.73464 -220.823375 
L 947.297233 -218.895138 
L 948.975258 -216.966901 
L 950.738691 -215.038664 
L 952.553729 -213.110427 
L 954.386047 -211.182189 
L 956.204515 -209.253952 
L 957.984944 -207.325715 
L 959.713325 -205.397478 
L 961.388058 -203.469241 
L 963.020764 -201.541004 
L 964.635429 -199.612767 
L 966.265891 -197.68453 
L 967.95192 -195.756292 
L 969.734348 -193.828055 
L 971.649921 -191.899818 
L 973.726568 -189.971581 
L 975.979768 -188.043344 
L 978.410531 -186.115107 
L 981.005291 -184.18687 
L 983.737705 -182.258633 
L 986.572101 -180.330395 
L 989.468058 -178.402158 
L 992.385477 -176.473921 
L 995.289414 -174.545684 
L 998.154039 -172.617447 
L 1000.965196 -170.68921 
L 1003.721256 -168.760973 
L 1006.432162 -166.832736 
L 1009.116804 -164.904498 
L 1011.799038 -162.976261 
L 1014.502783 -161.048024 
L 1017.246761 -159.119787 
L 1020.039412 -157.19155 
L 1022.874571 -155.263313 
L 1025.72839 -153.335076 
L 1028.557904 -151.406839 
L 1031.30153 -149.478601 
L 1033.88157 -147.550364 
L 1036.20863 -145.622127 
L 1038.187608 -143.69389 
L 1039.724728 -141.765653 
L 1040.734921 -139.837416 
L 1041.14875 -137.909179 
L 1040.91814 -135.980942 
L 1040.020238 -134.052704 
L 1038.459019 -132.124467 
L 1036.264495 -130.19623 
L 1033.489744 -128.267993 
L 1030.206225 -126.339756 
L 1026.498042 -124.411519 
L 1022.455921 -122.483282 
L 1018.171581 -120.555045 
L 1013.733055 -118.626807 
L 1009.221265 -116.69857 
L 1004.707926 -114.770333 
L 1000.254634 -112.842096 
L 995.912843 -110.913859 
L 991.724366 -108.985622 
L 987.722102 -107.057385 
L 983.930721 -105.129148 
L 980.36723 -103.20091 
L 977.041406 -101.272673 
L 973.956208 -99.344436 
L 971.10828 -97.416199 
L 968.488668 -95.487962 
L 966.083799 -93.559725 
L 963.876681 -91.631488 
L 961.848257 -89.703251 
L 959.978739 -87.775013 
L 958.248809 -85.846776 
L 956.640544 -83.918539 
L 955.138018 -81.990302 
L 953.727577 -80.062065 
L 952.397851 -78.133828 
L 951.139591 -76.205591 
L 949.945445 -74.277354 
L 948.809744 -72.349116 
L 947.728357 -70.420879 
L 946.698607 -68.492642 
L 945.719233 -66.564405 
L 944.79033 -64.636168 
L 943.913219 -62.707931 
L 943.090211 -60.779694 
L 942.324256 -58.851457 
L 941.618504 -56.923219 
L 940.97581 -54.994982 
L 940.398273 -53.066745 
L 939.886842 -51.138508 
L 939.441063 -49.210271 
L 939.058983 -47.282034 
L 938.737213 -45.353797 
L 938.471127 -43.42556 
L 938.255173 -41.497322 
z
" id="m8819b562d2" style="stroke:#4c4c4c;stroke-width:3;"/>
    </defs>
    <g clip-path="url(#pd5a4f7505c)">
     <use style="fill:#857aaa;stroke:#4c4c4c;stroke-width:3;" x="0" xlink:href="#m8819b562d2" y="288"/>
    </g>
   </g>
   <g id="line2d_8">
    <path clip-path="url(#pd5a4f7505c)" d="M 160.84625 193.739332 
L 160.84625 83.451712 
" style="fill:none;stroke:#4c4c4c;stroke-linecap:round;stroke-width:3;"/>
   </g>
   <g id="line2d_9">
    <path clip-path="url(#pd5a4f7505c)" d="M 160.84625 167.101845 
L 160.84625 125.970447 
" style="fill:none;stroke:#4c4c4c;stroke-linecap:round;stroke-width:9;"/>
   </g>
   <g id="line2d_10">
    <path clip-path="url(#pd5a4f7505c)" d="M 419.75875 221.127522 
L 419.75875 77.579978 
" style="fill:none;stroke:#4c4c4c;stroke-linecap:round;stroke-width:3;"/>
   </g>
   <g id="line2d_11">
    <path clip-path="url(#pd5a4f7505c)" d="M 419.75875 163.814757 
L 419.75875 118.889984 
" style="fill:none;stroke:#4c4c4c;stroke-linecap:round;stroke-width:9;"/>
   </g>
   <g id="line2d_12">
    <path clip-path="url(#pd5a4f7505c)" d="M 678.67125 197.399598 
L 678.67125 79.283266 
" style="fill:none;stroke:#4c4c4c;stroke-linecap:round;stroke-width:3;"/>
   </g>
   <g id="line2d_13">
    <path clip-path="url(#pd5a4f7505c)" d="M 678.67125 165.027889 
L 678.67125 122.424223 
" style="fill:none;stroke:#4c4c4c;stroke-linecap:round;stroke-width:9;"/>
   </g>
   <g id="line2d_14">
    <path clip-path="url(#pd5a4f7505c)" d="M 937.58375 202.554706 
L 937.58375 83.609566 
" style="fill:none;stroke:#4c4c4c;stroke-linecap:round;stroke-width:3;"/>
   </g>
   <g id="line2d_15">
    <path clip-path="url(#pd5a4f7505c)" d="M 937.58375 161.182517 
L 937.58375 123.485609 
" style="fill:none;stroke:#4c4c4c;stroke-linecap:round;stroke-width:9;"/>
   </g>
   <g id="patch_3">
    <path d="M 31.39 259.1075 
L 31.39 39.6 
" style="fill:none;"/>
   </g>
   <g id="patch_4">
    <path d="M 1067.04 259.1075 
L 1067.04 39.6 
" style="fill:none;"/>
   </g>
   <g id="patch_5">
    <path d="M 31.39 259.1075 
L 1067.04 259.1075 
" style="fill:none;"/>
   </g>
   <g id="patch_6">
    <path d="M 31.39 39.6 
L 1067.04 39.6 
" style="fill:none;"/>
   </g>
   <g id="PathCollection_1">
    <defs>
     <path d="M 0 3 
C 0.795609 3 1.55874 2.683901 2.12132 2.12132 
C 2.683901 1.55874 3 0.795609 3 0 
C 3 -0.795609 2.683901 -1.55874 2.12132 -2.12132 
C 1.55874 -2.683901 0.795609 -3 0 -3 
C -0.795609 -3 -1.55874 -2.683901 -2.12132 -2.12132 
C -2.683901 -1.55874 -3 -0.795609 -3 0 
C -3 0.795609 -2.683901 1.55874 -2.12132 2.12132 
C -1.55874 2.683901 -0.795609 3 0 3 
z
" id="mcec29e7fff" style="stroke:#4c4c4c;stroke-width:0.3;"/>
    </defs>
    <g clip-path="url(#pd5a4f7505c)">
     <use style="fill:#ffffff;stroke:#4c4c4c;stroke-width:0.3;" x="160.84625" xlink:href="#mcec29e7fff" y="145.014393"/>
    </g>
   </g>
   <g id="PathCollection_2">
    <g clip-path="url(#pd5a4f7505c)">
     <use style="fill:#ffffff;stroke:#4c4c4c;stroke-width:0.3;" x="419.75875" xlink:href="#mcec29e7fff" y="143.086287"/>
    </g>
   </g>
   <g id="PathCollection_3">
    <g clip-path="url(#pd5a4f7505c)">
     <use style="fill:#ffffff;stroke:#4c4c4c;stroke-width:0.3;" x="678.67125" xlink:href="#mcec29e7fff" y="144.14375"/>
    </g>
   </g>
   <g id="PathCollection_4">
    <g clip-path="url(#pd5a4f7505c)">
     <use style="fill:#ffffff;stroke:#4c4c4c;stroke-width:0.3;" x="937.58375" xlink:href="#mcec29e7fff" y="147.631729"/>
    </g>
   </g>
  </g>
  <g id="text_12">
   <!-- Violin Plot of all Continuous Variables -->
   <g style="fill:#262626;" transform="translate(416.035547 16.496719)scale(0.15 -0.15)">
    <defs>
     <path d="M 1803 0 
L 28 4581 
L 684 4581 
L 1875 1253 
Q 2019 853 2116 503 
Q 2222 878 2363 1253 
L 3600 4581 
L 4219 4581 
L 2425 0 
L 1803 0 
z
" id="ArialMT-56" transform="scale(0.015625)"/>
     <path d="M 409 0 
L 409 4581 
L 972 4581 
L 972 0 
L 409 0 
z
" id="ArialMT-6c" transform="scale(0.015625)"/>
     <path d="M 3763 1606 
L 4369 1453 
Q 4178 706 3683 314 
Q 3188 -78 2472 -78 
Q 1731 -78 1267 223 
Q 803 525 561 1097 
Q 319 1669 319 2325 
Q 319 3041 592 3573 
Q 866 4106 1370 4382 
Q 1875 4659 2481 4659 
Q 3169 4659 3637 4309 
Q 4106 3959 4291 3325 
L 3694 3184 
Q 3534 3684 3231 3912 
Q 2928 4141 2469 4141 
Q 1941 4141 1586 3887 
Q 1231 3634 1087 3207 
Q 944 2781 944 2328 
Q 944 1744 1114 1308 
Q 1284 872 1643 656 
Q 2003 441 2422 441 
Q 2931 441 3284 734 
Q 3638 1028 3763 1606 
z
" id="ArialMT-43" transform="scale(0.015625)"/>
     <path d="M 2597 0 
L 2597 488 
Q 2209 -75 1544 -75 
Q 1250 -75 995 37 
Q 741 150 617 320 
Q 494 491 444 738 
Q 409 903 409 1263 
L 409 3319 
L 972 3319 
L 972 1478 
Q 972 1038 1006 884 
Q 1059 663 1231 536 
Q 1403 409 1656 409 
Q 1909 409 2131 539 
Q 2353 669 2445 892 
Q 2538 1116 2538 1541 
L 2538 3319 
L 3100 3319 
L 3100 0 
L 2597 0 
z
" id="ArialMT-75" transform="scale(0.015625)"/>
     <path d="M 941 0 
L 419 0 
L 419 4581 
L 981 4581 
L 981 2947 
Q 1338 3394 1891 3394 
Q 2197 3394 2470 3270 
Q 2744 3147 2920 2923 
Q 3097 2700 3197 2384 
Q 3297 2069 3297 1709 
Q 3297 856 2875 390 
Q 2453 -75 1863 -75 
Q 1275 -75 941 416 
L 941 0 
z
M 934 1684 
Q 934 1088 1097 822 
Q 1363 388 1816 388 
Q 2184 388 2453 708 
Q 2722 1028 2722 1663 
Q 2722 2313 2464 2622 
Q 2206 2931 1841 2931 
Q 1472 2931 1203 2611 
Q 934 2291 934 1684 
z
" id="ArialMT-62" transform="scale(0.015625)"/>
    </defs>
    <use xlink:href="#ArialMT-56"/>
    <use x="64.949219" xlink:href="#ArialMT-69"/>
    <use x="87.166016" xlink:href="#ArialMT-6f"/>
    <use x="142.78125" xlink:href="#ArialMT-6c"/>
    <use x="164.998047" xlink:href="#ArialMT-69"/>
    <use x="187.214844" xlink:href="#ArialMT-6e"/>
    <use x="242.830078" xlink:href="#ArialMT-20"/>
    <use x="270.613281" xlink:href="#ArialMT-50"/>
    <use x="337.3125" xlink:href="#ArialMT-6c"/>
    <use x="359.529297" xlink:href="#ArialMT-6f"/>
    <use x="415.144531" xlink:href="#ArialMT-74"/>
    <use x="442.927734" xlink:href="#ArialMT-20"/>
    <use x="470.710938" xlink:href="#ArialMT-6f"/>
    <use x="526.326172" xlink:href="#ArialMT-66"/>
    <use x="554.109375" xlink:href="#ArialMT-20"/>
    <use x="581.892578" xlink:href="#ArialMT-61"/>
    <use x="637.507812" xlink:href="#ArialMT-6c"/>
    <use x="659.724609" xlink:href="#ArialMT-6c"/>
    <use x="681.941406" xlink:href="#ArialMT-20"/>
    <use x="709.724609" xlink:href="#ArialMT-43"/>
    <use x="781.941406" xlink:href="#ArialMT-6f"/>
    <use x="837.556641" xlink:href="#ArialMT-6e"/>
    <use x="893.171875" xlink:href="#ArialMT-74"/>
    <use x="920.955078" xlink:href="#ArialMT-69"/>
    <use x="943.171875" xlink:href="#ArialMT-6e"/>
    <use x="998.787109" xlink:href="#ArialMT-75"/>
    <use x="1054.402344" xlink:href="#ArialMT-6f"/>
    <use x="1110.017578" xlink:href="#ArialMT-75"/>
    <use x="1165.632812" xlink:href="#ArialMT-73"/>
    <use x="1215.632812" xlink:href="#ArialMT-20"/>
    <use x="1243.416016" xlink:href="#ArialMT-56"/>
    <use x="1302.740234" xlink:href="#ArialMT-61"/>
    <use x="1358.355469" xlink:href="#ArialMT-72"/>
    <use x="1391.65625" xlink:href="#ArialMT-69"/>
    <use x="1413.873047" xlink:href="#ArialMT-61"/>
    <use x="1469.488281" xlink:href="#ArialMT-62"/>
    <use x="1525.103516" xlink:href="#ArialMT-6c"/>
    <use x="1547.320312" xlink:href="#ArialMT-65"/>
    <use x="1602.935547" xlink:href="#ArialMT-73"/>
   </g>
  </g>
 </g>
 <defs>
  <clipPath id="pd5a4f7505c">
   <rect height="219.5075" width="1035.65" x="31.39" y="39.6"/>
  </clipPath>
 </defs>
</svg>
